# xmcd
#
# Track frame offsets:
#	150
#	13538
#	27525
#	41514
#	54465
#	67069
#	82214
#	95641
#	110704
#	125073
#	138294
#	151221
#	165285
#	178667
#	191289
#	205937
#	219879
#	231776
#	246190
#	262038
#	273414
#	287752
#	300213
#	314921
#	327882
#	344132
#
# Disc length: 4764 seconds
#
# Revision: 0
# Processed by: cddbd v1.5.2PL0 Copyright (c) Steve Scherf et al.
# Submitted via: EasyCDDAExtractor 4.6.9.1
#
DISCID=86129a1a
DTITLE=The Carter Family - In The Shadow Of Clinch Mountain, Vol. 4
DYEAR=2000
DGENRE=Country
TTITLE0=I Never Loved But One
TTITLE1=Tell Me That You Love Me
TTITLE2=Where We'll Never Grow Old
TTITLE3=We Will March Through The Streets Of The City
TTITLE4=Sweet As The Flowers In Maytime
TTITLE5=Will The Roses Bloom In Heaven
TTITLE6=My Little Home In Tennessee
TTITLE7=Sun Of The Soul
TTITLE8=If One Won't Another One Will
TTITLE9=Broken Hearted Lover
TTITLE10=Two Sweethearts
TTITLE11=Winding Stream
TTITLE12=I Wouldn't Mind Dying
TTITLE13=Spirit Of Love Watches Over Me
TTITLE14=Church In The Wildwood
TTITLE15=Give Me Roses While I Live
TTITLE16=I Never Will Marry
TTITLE17=On The Sea Of Galilee
TTITLE18=Home By The Sea
TTITLE19=When The Roses Come Again
TTITLE20=I Loved You Better Than You Knew
TTITLE21=This Is Like Heaven To Me
TTITLE22=See That My Grave Is Kept Green
TTITLE23=Over The Garden Wall
TTITLE24=Gold Watch And Chain
TTITLE25=School House On The Hill
EXTD=Bear Family CD 15865 LK
EXTT0=24-FEB-1932, Atlanta
EXTT1=24-FEB-1932, Atlanta
EXTT2=24-FEB-1932, Atlanta
EXTT3=24-FEB-1932, Atlanta
EXTT4=12-OCT-1932, Camden
EXTT5=12-OCT-1932, Camden
EXTT6=12-OCT-1932, Camden
EXTT7=12-OCT-1932, Camden
EXTT8=12-OCT-1932, Camden
EXTT9=12-OCT-1932, Camden
EXTT10=13-OCT-1932, Camden
EXTT11=13-OCT-1932, Camden
EXTT12=13-OCT-1932, Camden
EXTT13=13-OCT-1932, Camden
EXTT14=13-OCT-1932, Camden
EXTT15=17-JUN-1933, Camden
EXTT16=17-JUN-1933, Camden
EXTT17=17-JUN-1933, Camden
EXTT18=17-JUN-1933, Camden
EXTT19=17-JUN-1933, Camden
EXTT20=17-JUN-1933, Camden
EXTT21=17-JUN-1933, Camden
EXTT22=17-JUN-1933, Camden
EXTT23=17-JUN-1933, Camden
EXTT24=17-JUN-1933, Camden
EXTT25=17-JUN-1933, Camden
PLAYORDER=
